# xmcd CD database file
#
# Track frame offsets:
#	182
#	12702
#	29615
#	41112
#	53855
#	65610
#	76570
#	92750
#	107595
#	122262
#	133177
#	147197
#	158830
#	171967
#	188287
#
# Disc length: 2678 seconds
#
# Revision: 3
# Processed by: cddbd v1.5.1PL0 Copyright (c) Steve Scherf et al.
# Submitted via: CDex 1.51
#
DISCID=c30a740f
DTITLE=Lyn Anderson - Stand By Your Man
DYEAR=1988
DGENRE=Country
TTITLE0=Stand By Your Man
TTITLE1=Blue Bayou
TTITLE2=Listen To A Country Song
TTITLE3=Top Of The World
TTITLE4=Rodeo Cowboy
TTITLE5=Heaven's Just A Sin Away
TTITLE6=Devil Went Down To Georgia
TTITLE7=Gone At Last
TTITLE8=Faithless Love
TTITLE9=Someday Soon
TTITLE10=Two Doors Down
TTITLE11=That'll Be The Day
TTITLE12=Danny's Song
TTITLE13=When I Dream
TTITLE14=I Fall To Pieces
EXTD=YEAR: 1988
EXTT0=
EXTT1=
EXTT2=
EXTT3=
EXTT4=
EXTT5=
EXTT6=
EXTT7=
EXTT8=
EXTT9=
EXTT10=
EXTT11=
EXTT12=
EXTT13=
EXTT14=
PLAYORDER=
